<?xml version="1.0" encoding="utf-8"?>
<!-- Generator: Adobe Illustrator 19.1.0, SVG Export Plug-In . SVG Version: 6.00 Build 0)  -->
<svg version="1.1" id="Layer_1" xmlns="http://www.w3.org/2000/svg" xmlns:xlink="http://www.w3.org/1999/xlink" x="0px" y="0px"
	 viewBox="-17 29 64 43" style="enable-background:new -17 29 64 43;" xml:space="preserve">
<style type="text/css">
	.st0{fill:#FFA409;}
</style>
<path class="st0" d="M14.2,63.9c-1.8-0.3-2.8-1.6-2.8-1.6c-0.1-0.1-0.3-0.1-0.4,0L5.3,68c-0.4,0.4-1.1,0.4-1.6,0L-13,51.3
	c-0.4-0.4-0.4-1.1,0-1.6L3.7,33c0.4-0.4,1.1-0.4,1.6,0l5.7,5.7c0.1,0.1,0.3,0.1,0.4,0l2.2-2.2c0.1-0.1,0.1-0.3,0-0.4l-5.7-5.7
	c-1.9-1.9-4.9-1.9-6.8,0l-16.7,16.7c-1.9,1.9-1.9,4.9,0,6.8L1.1,70.6c1.9,1.9,4.9,1.9,6.8,0l6.4-6.4C14.4,64.1,14.4,63.9,14.2,63.9z
	 M45.5,47.2L32.1,33.7l0,0l-2.8-2.8c-0.1-0.1-0.3,0-0.3,0l-2.2,2.2c-0.1,0.1-0.1,0.3,0,0.4l16.1,16.1c0.4,0.4,0.4,1.1,0,1.6L26.2,68
	c-0.4,0.4-1.1,0.4-1.6,0l-5.7-5.7c-0.1-0.1-0.3-0.1-0.4,0c0,0-1,1.3-2.8,1.6c-0.2,0-0.2,0.2-0.1,0.3l6.4,6.4c1.9,1.9,4.9,1.9,6.8,0
	l16.8-16.8C47.4,52,47.4,49,45.5,47.2z M24.6,53.8c1.8-1.8,1.8-4.8,0-6.7l-5.7-5.7c-0.1-0.1-0.3-0.1-0.4,0l-2.2,2.2
	c-0.1,0.1-0.1,0.3,0,0.4l5.6,5.6c0.5,0.5,0.5,1.2,0,1.7l-6.2,6.2c-0.5,0.5-1.2,0.5-1.7,0l-6.2-6.2c-0.4-0.4-0.4-1.1,0-1.6l14.3-14.2
	l0,0l2.5-2.5l0.1-0.1l2.9-2.9c0.1-0.1,0.1-0.4-0.1-0.5c-1.7-0.9-3.8-0.6-5.3,0.7L5.3,47.1c-1.9,1.9-1.9,4.9,0,6.8l6.3,6.3
	c1.8,1.8,4.8,1.8,6.7,0L24.6,53.8z"/>
</svg>
